<svg width="463" height="89" viewBox="0 0 463 89" fill="none" xmlns="http://www.w3.org/2000/svg">
<path d="M33.424 88.2C33.296 88.2 33.168 88.168 33.04 88.104C32.976 88.104 32.88 88.104 32.752 88.104C27.632 86.952 23.728 85.512 21.04 83.784C18.416 82.056 16.656 79.944 15.76 77.448C14.864 75.016 14.416 72.2 14.416 69V61.416C14.416 58.92 14.064 56.52 13.36 54.216C12.72 51.912 11.568 50.024 9.904 48.552C8.24 47.08 5.904 46.344 2.896 46.344H2.32C1.808 46.344 1.36 46.152 0.976 45.768C0.592 45.384 0.4 44.936 0.4 44.424C0.4 43.912 0.592 43.496 0.976 43.176C1.36 42.856 1.808 42.696 2.32 42.696H2.896C6.032 42.696 8.432 41.96 10.096 40.488C11.76 39.016 12.88 37.128 13.456 34.824C14.096 32.52 14.416 30.12 14.416 27.624V20.04C14.416 16.712 14.896 13.992 15.856 11.88C16.816 9.704 18.128 7.976 19.792 6.696C21.456 5.352 23.376 4.264 25.552 3.432C27.728 2.536 30.064 1.736 32.56 1.032C33.648 0.711996 34.32 0.775995 34.576 1.224C34.896 1.672 35.056 2.056 35.056 2.376C35.056 2.76 34.928 3.112 34.672 3.432C34.416 3.752 34.032 3.976 33.52 4.10399C29.232 5.384 26 6.696 23.824 8.04C21.648 9.384 20.176 11.048 19.408 13.032C18.64 14.952 18.256 17.48 18.256 20.616V27.816C18.256 31.912 17.52 35.56 16.048 38.76C14.576 41.896 12.432 43.816 9.616 44.52L9.424 44.424C12.432 45.192 14.64 47.144 16.048 50.28C17.52 53.416 18.256 57.064 18.256 61.224V68.424C18.256 71.496 18.608 74.024 19.312 76.008C20.08 78.056 21.552 79.752 23.728 81.096C25.968 82.44 29.232 83.72 33.52 84.936C34.672 85.256 35.152 85.992 34.96 87.144C34.896 87.4 34.704 87.624 34.384 87.816C34.128 88.072 33.808 88.2 33.424 88.2ZM86.5645 65.16C87.0765 65.16 87.5245 65.352 87.9085 65.736C88.2925 66.12 88.4845 66.568 88.4845 67.08C88.4845 67.656 88.2925 68.136 87.9085 68.52C87.5245 68.84 87.0765 69 86.5645 69H51.3325C50.7565 69 50.2765 68.808 49.8925 68.424C49.5725 68.04 49.4125 67.592 49.4125 67.08V3.72C49.4125 3.208 49.6045 2.76 49.9885 2.376C50.3725 1.992 50.8525 1.8 51.4285 1.8C52.0045 1.8 52.4845 1.992 52.8685 2.376C53.2525 2.76 53.4445 3.208 53.4445 3.72V66.888L51.7165 65.16H86.5645ZM101.777 67.08C101.777 67.592 101.585 68.04 101.201 68.424C100.817 68.808 100.369 69 99.8568 69C99.2808 69 98.8008 68.808 98.4168 68.424C98.0968 68.04 97.9368 67.592 97.9368 67.08V21.48C97.9368 20.968 98.1288 20.52 98.5128 20.136C98.8968 19.752 99.3448 19.56 99.8568 19.56C100.433 19.56 100.881 19.752 101.201 20.136C101.585 20.52 101.777 20.968 101.777 21.48V67.08ZM99.8568 13.032C98.8328 13.032 98.0008 12.744 97.3608 12.168C96.7848 11.592 96.4968 10.856 96.4968 9.96V9.192C96.4968 8.296 96.8168 7.56 97.4568 6.984C98.0968 6.408 98.9288 6.12 99.9528 6.12C100.849 6.12 101.585 6.408 102.161 6.984C102.801 7.56 103.121 8.296 103.121 9.192V9.96C103.121 10.856 102.801 11.592 102.161 12.168C101.585 12.744 100.817 13.032 99.8568 13.032ZM115.03 61.32C114.582 60.552 114.358 59.944 114.358 59.496C114.422 58.984 114.678 58.568 115.126 58.248C115.446 57.928 115.862 57.8 116.374 57.864C116.95 57.864 117.43 58.088 117.814 58.536C119.478 60.904 121.59 62.824 124.15 64.296C126.774 65.768 129.846 66.504 133.366 66.504C135.478 66.504 137.494 66.152 139.414 65.448C141.398 64.744 142.998 63.688 144.214 62.28C145.494 60.872 146.134 59.144 146.134 57.096C146.134 54.92 145.526 53.192 144.31 51.912C143.094 50.568 141.526 49.512 139.606 48.744C137.686 47.976 135.67 47.336 133.558 46.824C131.318 46.248 129.174 45.608 127.126 44.904C125.142 44.136 123.382 43.208 121.846 42.12C120.31 40.968 119.094 39.624 118.198 38.088C117.302 36.552 116.854 34.728 116.854 32.616C116.854 30.12 117.526 27.88 118.87 25.896C120.214 23.912 122.102 22.376 124.534 21.288C126.966 20.136 129.782 19.56 132.982 19.56C134.518 19.56 136.15 19.752 137.878 20.136C139.606 20.52 141.334 21.192 143.062 22.152C144.79 23.048 146.39 24.328 147.862 25.992C148.374 26.376 148.598 26.856 148.534 27.432C148.534 27.944 148.31 28.424 147.862 28.872C147.478 29.128 147.062 29.256 146.614 29.256C146.166 29.256 145.782 29.064 145.462 28.68C143.798 26.824 141.846 25.448 139.606 24.552C137.43 23.656 135.094 23.208 132.598 23.208C130.486 23.208 128.502 23.56 126.646 24.264C124.854 24.968 123.382 26.024 122.23 27.432C121.078 28.776 120.502 30.504 120.502 32.616C120.63 34.6 121.302 36.232 122.518 37.512C123.798 38.792 125.462 39.848 127.51 40.68C129.622 41.512 131.99 42.28 134.614 42.984C136.726 43.496 138.678 44.104 140.47 44.808C142.326 45.448 143.926 46.28 145.27 47.304C146.678 48.328 147.766 49.608 148.534 51.144C149.366 52.68 149.782 54.6 149.782 56.904C149.782 59.592 149.046 61.928 147.574 63.912C146.166 65.832 144.182 67.336 141.622 68.424C139.126 69.448 136.246 69.96 132.982 69.96C129.654 69.96 126.454 69.288 123.382 67.944C120.31 66.6 117.526 64.392 115.03 61.32ZM202.741 21.096C203.317 21.096 203.765 21.288 204.085 21.672C204.469 22.056 204.661 22.504 204.661 23.016V67.08C204.661 67.592 204.469 68.04 204.085 68.424C203.701 68.808 203.253 69 202.741 69C202.165 69 201.685 68.808 201.301 68.424C200.981 68.04 200.821 67.592 200.821 67.08V53.448L202.357 52.2C202.357 54.248 201.845 56.328 200.821 58.44C199.797 60.552 198.389 62.472 196.597 64.2C194.805 65.928 192.693 67.336 190.261 68.424C187.829 69.448 185.205 69.96 182.389 69.96C178.101 69.96 174.261 68.84 170.869 66.6C167.541 64.36 164.917 61.32 162.997 57.48C161.077 53.64 160.117 49.32 160.117 44.52C160.117 39.656 161.077 35.368 162.997 31.656C164.981 27.88 167.637 24.936 170.965 22.824C174.357 20.648 178.165 19.56 182.389 19.56C185.141 19.56 187.733 20.072 190.165 21.096C192.597 22.056 194.709 23.432 196.501 25.224C198.357 27.016 199.797 29.128 200.821 31.56C201.845 33.928 202.357 36.52 202.357 39.336L200.821 36.936V23.016C200.821 22.504 200.981 22.056 201.301 21.672C201.685 21.288 202.165 21.096 202.741 21.096ZM182.581 66.312C186.165 66.312 189.365 65.384 192.181 63.528C194.997 61.608 197.205 59.016 198.805 55.752C200.405 52.424 201.205 48.68 201.205 44.52C201.205 40.552 200.405 36.968 198.805 33.768C197.205 30.504 194.997 27.944 192.181 26.088C189.365 24.168 186.165 23.208 182.581 23.208C179.061 23.208 175.893 24.136 173.077 25.992C170.261 27.784 168.021 30.28 166.357 33.48C164.757 36.68 163.957 40.36 163.957 44.52C163.957 48.68 164.757 52.424 166.357 55.752C167.957 59.016 170.165 61.608 172.981 63.528C175.797 65.384 178.997 66.312 182.581 66.312ZM219.41 38.952C218.834 38.952 218.354 38.76 217.97 38.376C217.586 37.992 217.394 37.512 217.394 36.936C217.394 36.424 217.586 36.008 217.97 35.688C218.354 35.304 218.834 35.112 219.41 35.112H259.154C259.73 35.112 260.21 35.304 260.594 35.688C260.978 36.072 261.17 36.552 261.17 37.128C261.17 37.576 260.978 37.992 260.594 38.376C260.21 38.76 259.73 38.952 259.154 38.952H219.41ZM239.282 60.36C238.706 60.36 238.226 60.168 237.842 59.784C237.458 59.4 237.266 58.92 237.266 58.344V16.584C237.266 15.944 237.458 15.432 237.842 15.048C238.226 14.664 238.706 14.472 239.282 14.472C239.922 14.472 240.402 14.664 240.722 15.048C241.106 15.432 241.298 15.912 241.298 16.488V58.248C241.298 58.888 241.106 59.4 240.722 59.784C240.338 60.168 239.858 60.36 239.282 60.36ZM312.69 65.16C313.202 65.16 313.65 65.352 314.034 65.736C314.418 66.12 314.61 66.568 314.61 67.08C314.61 67.656 314.418 68.136 314.034 68.52C313.65 68.84 313.202 69 312.69 69H277.458C276.882 69 276.402 68.808 276.018 68.424C275.698 68.04 275.538 67.592 275.538 67.08V3.72C275.538 3.208 275.73 2.76 276.114 2.376C276.498 1.992 276.978 1.8 277.554 1.8C278.13 1.8 278.61 1.992 278.994 2.376C279.378 2.76 279.57 3.208 279.57 3.72V66.888L277.842 65.16H312.69ZM345.662 69.96C340.862 69.96 336.606 68.936 332.894 66.888C329.246 64.84 326.366 61.96 324.254 58.248C322.142 54.472 321.086 50.056 321.086 45C321.086 39.624 322.11 35.048 324.158 31.272C326.27 27.496 328.958 24.616 332.222 22.632C335.55 20.584 339.07 19.56 342.782 19.56C345.47 19.56 348.094 20.008 350.654 20.904C353.214 21.736 355.486 23.08 357.47 24.936C359.518 26.728 361.15 29 362.366 31.752C363.646 34.44 364.35 37.672 364.478 41.448C364.478 41.96 364.286 42.44 363.902 42.888C363.518 43.272 363.07 43.464 362.558 43.464H323.39L322.814 39.816H361.502L360.542 40.68V38.952C360.222 35.56 359.134 32.712 357.278 30.408C355.486 28.104 353.31 26.376 350.75 25.224C348.19 24.008 345.534 23.4 342.782 23.4C340.862 23.4 338.846 23.848 336.734 24.744C334.622 25.576 332.67 26.888 330.878 28.68C329.086 30.408 327.614 32.616 326.462 35.304C325.374 37.992 324.83 41.128 324.83 44.712C324.83 48.616 325.598 52.2 327.134 55.464C328.734 58.728 331.07 61.352 334.142 63.336C337.278 65.32 341.118 66.312 345.662 66.312C347.838 66.312 349.886 65.96 351.806 65.256C353.726 64.488 355.454 63.496 356.99 62.28C358.526 61.064 359.774 59.752 360.734 58.344C361.246 57.768 361.79 57.48 362.366 57.48C362.814 57.48 363.198 57.672 363.518 58.056C363.838 58.376 363.998 58.76 363.998 59.208C363.998 59.656 363.87 60.04 363.614 60.36C361.63 62.92 359.07 65.16 355.934 67.08C352.862 69 349.438 69.96 345.662 69.96ZM399.006 69.96C394.206 69.96 389.95 68.936 386.238 66.888C382.59 64.84 379.71 61.96 377.598 58.248C375.486 54.472 374.43 50.056 374.43 45C374.43 39.624 375.454 35.048 377.502 31.272C379.614 27.496 382.302 24.616 385.566 22.632C388.894 20.584 392.414 19.56 396.126 19.56C398.814 19.56 401.438 20.008 403.998 20.904C406.558 21.736 408.83 23.08 410.814 24.936C412.862 26.728 414.494 29 415.71 31.752C416.99 34.44 417.694 37.672 417.822 41.448C417.822 41.96 417.63 42.44 417.246 42.888C416.862 43.272 416.414 43.464 415.902 43.464H376.734L376.158 39.816H414.846L413.886 40.68V38.952C413.566 35.56 412.478 32.712 410.622 30.408C408.83 28.104 406.654 26.376 404.094 25.224C401.534 24.008 398.878 23.4 396.126 23.4C394.206 23.4 392.19 23.848 390.078 24.744C387.966 25.576 386.014 26.888 384.222 28.68C382.43 30.408 380.958 32.616 379.806 35.304C378.718 37.992 378.174 41.128 378.174 44.712C378.174 48.616 378.942 52.2 380.478 55.464C382.078 58.728 384.414 61.352 387.486 63.336C390.622 65.32 394.462 66.312 399.006 66.312C401.182 66.312 403.23 65.96 405.15 65.256C407.07 64.488 408.798 63.496 410.334 62.28C411.87 61.064 413.118 59.752 414.078 58.344C414.59 57.768 415.134 57.48 415.71 57.48C416.158 57.48 416.542 57.672 416.862 58.056C417.182 58.376 417.342 58.76 417.342 59.208C417.342 59.656 417.214 60.04 416.958 60.36C414.974 62.92 412.414 65.16 409.278 67.08C406.206 69 402.782 69.96 399.006 69.96ZM429.309 88.2C428.669 88.2 428.221 88.008 427.965 87.624C427.709 87.304 427.581 86.984 427.581 86.664C427.581 86.28 427.709 85.928 427.965 85.608C428.285 85.288 428.669 85.064 429.117 84.936C433.405 83.656 436.637 82.344 438.813 81C440.989 79.656 442.461 77.992 443.229 76.008C443.997 74.024 444.381 71.496 444.381 68.424V61.224C444.381 57.128 445.117 53.48 446.589 50.28C448.125 47.08 450.269 45.16 453.021 44.52L453.213 44.616C450.269 43.848 448.061 41.896 446.589 38.76C445.117 35.56 444.381 31.912 444.381 27.816V20.616C444.381 17.48 443.997 14.92 443.229 12.936C442.525 10.952 441.085 9.288 438.909 7.944C436.733 6.536 433.469 5.25599 429.117 4.10399C427.965 3.78399 427.485 3.04799 427.677 1.89599C427.805 1.57599 427.997 1.32 428.253 1.128C428.509 0.935997 428.829 0.839996 429.213 0.839996C429.341 0.839996 429.469 0.871996 429.597 0.935995C429.725 0.935995 429.821 0.935995 429.885 0.935995C435.069 2.024 438.973 3.464 441.597 5.256C444.221 6.984 445.981 9.096 446.877 11.592C447.773 14.024 448.221 16.84 448.221 20.04V27.624C448.221 30.12 448.541 32.52 449.181 34.824C449.885 37.128 451.069 39.016 452.733 40.488C454.397 41.96 456.733 42.696 459.741 42.696H460.317C460.829 42.696 461.277 42.888 461.661 43.272C462.045 43.656 462.237 44.104 462.237 44.616C462.237 45.064 462.045 45.48 461.661 45.864C461.277 46.184 460.829 46.344 460.317 46.344H459.741C456.605 46.344 454.205 47.08 452.541 48.552C450.877 50.024 449.725 51.912 449.085 54.216C448.509 56.52 448.221 58.92 448.221 61.416V69C448.221 71.368 447.901 73.384 447.261 75.048C446.685 76.712 445.693 78.184 444.285 79.464C442.941 80.808 441.085 82.12 438.717 83.4C436.349 84.744 433.405 86.312 429.885 88.104C429.821 88.168 429.725 88.2 429.597 88.2C429.533 88.2 429.437 88.2 429.309 88.2Z" fill="black"/>
</svg>
