<svg width="800" height="800" viewBox="0 0 800 800" fill="none" xmlns="http://www.w3.org/2000/svg">
<path fill-rule="evenodd" clip-rule="evenodd" d="M400 800C620.914 800 800 620.914 800 400C800 179.086 620.914 0 400 0C179.086 0 0 179.086 0 400C0 620.914 179.086 800 400 800ZM163.027 550.64C163.642 550.845 164.256 550.947 164.87 550.947C167.328 550.947 169.376 550.026 171.014 548.182C172.653 546.544 173.574 544.701 173.779 542.653C173.984 537.738 171.424 534.358 166.099 532.515C155.245 529.034 146.95 525.347 141.216 521.456C135.686 517.565 132 512.854 130.157 507.325C128.314 502 127.392 495.242 127.392 487.05L127.699 459.709C127.699 447.011 125.037 436.566 119.712 428.374C114.797 420.315 107.619 414.802 98.1754 411.837C107.373 409.085 114.552 403.641 119.712 395.504C125.037 387.107 127.699 376.662 127.699 364.17L127.392 336.522C127.392 328.33 128.314 321.571 130.157 316.246C132.205 310.717 135.994 306.006 141.523 302.115C147.053 298.224 155.245 294.538 166.099 291.056C168.557 290.442 170.4 289.315 171.629 287.677C173.062 286.038 173.779 284.195 173.779 282.147C173.779 279.69 172.858 277.334 171.014 275.082C169.171 272.829 165.894 272.214 161.184 273.238C151.558 275.491 143.162 278.256 135.994 281.533C129.03 284.81 123.194 288.701 118.483 293.206C113.773 297.712 110.189 303.242 107.731 309.795C105.274 316.349 104.045 324.131 104.045 333.142L104.352 360.79C104.352 368.573 103.226 375.536 100.973 381.68C98.9248 387.824 95.5456 392.739 90.8352 396.426C86.3296 399.907 80.288 401.75 72.7104 401.955H70.8672C68 401.955 65.5424 402.877 63.4944 404.72C61.6512 406.563 60.7296 408.918 60.7296 411.786C60.7296 414.653 61.6512 417.11 63.4944 419.158C65.5424 421.002 68 421.923 70.8672 421.923H72.4032C79.776 421.923 85.8176 423.766 90.528 427.453C95.2384 430.934 98.72 435.747 100.973 441.891C103.226 448.035 104.352 454.998 104.352 462.781L104.045 490.736C104.045 500.566 105.581 509.373 108.653 517.155C111.725 525.142 117.357 531.798 125.549 537.123C133.946 542.653 145.926 547.158 161.491 550.64H163.027ZM619.188 547.261C620.622 549.514 622.772 550.64 625.639 550.64H627.482C628.097 550.64 628.711 550.538 629.326 550.333C640.59 546.237 649.908 542.243 657.281 538.352C664.654 534.461 670.49 530.16 674.791 525.45C679.092 520.944 682.164 515.824 684.007 510.09C685.851 504.355 686.772 497.802 686.772 490.429L686.465 462.474C686.465 454.691 687.489 447.728 689.537 441.584C691.79 435.44 695.169 430.627 699.674 427.146C704.385 423.459 710.529 421.616 718.107 421.616H719.95C722.817 421.616 725.172 420.694 727.015 418.851C729.063 416.803 730.087 414.448 730.087 411.786C730.087 408.918 729.063 406.563 727.015 404.72C725.172 402.672 722.817 401.648 719.95 401.648H718.414C711.041 401.443 704.999 399.6 700.289 396.118C695.578 392.637 692.097 387.824 689.844 381.68C687.591 375.536 686.465 368.47 686.465 360.483L686.772 332.835C686.772 322.8 685.236 313.891 682.164 306.109C679.092 298.326 673.46 291.67 665.268 286.141C657.076 280.406 645.095 276.003 629.326 272.931C628.711 272.726 628.097 272.624 627.482 272.624H625.946C623.489 272.624 621.441 273.443 619.802 275.082C618.164 276.72 617.242 278.666 617.038 280.918C616.833 285.629 619.393 288.906 624.718 290.749C635.777 294.23 644.071 297.917 649.601 301.808C655.13 305.699 658.817 310.41 660.66 315.939C662.503 321.264 663.425 328.022 663.425 336.214L663.118 363.862C663.118 376.355 665.78 386.8 671.105 395.197C676.136 402.937 683.178 408.391 692.23 411.561C683.419 414.353 676.378 419.753 671.105 427.76C665.78 436.157 663.118 446.704 663.118 459.402L663.425 486.742C663.425 494.934 662.401 501.795 660.353 507.325C658.51 512.854 654.823 517.462 649.294 521.149C643.969 525.04 635.777 528.726 624.718 532.208C622.465 533.027 620.622 534.154 619.188 535.587C617.755 537.226 617.038 539.069 617.038 541.117C617.038 542.96 617.755 545.008 619.188 547.261ZM305.413 490.531C308.894 490.531 311.864 491.76 314.322 494.218C316.779 496.47 318.008 499.338 318.008 502.819C318.008 506.301 316.779 509.168 314.322 511.421C311.864 513.674 308.894 514.8 305.413 514.8H199.122C195.64 514.8 192.67 513.571 190.213 511.114C187.96 508.656 186.834 505.686 186.834 502.205V312.048C186.834 308.566 188.062 305.699 190.52 303.446C192.978 300.989 196.05 299.76 199.736 299.76C203.218 299.76 206.187 300.989 208.645 303.446C211.102 305.699 212.331 308.566 212.331 312.048V490.531H305.413ZM352.105 424.176C348.623 424.176 345.756 423.05 343.503 420.797C341.25 418.544 340.124 415.779 340.124 412.502C340.124 409.226 341.25 406.563 343.503 404.515C345.756 402.262 348.623 401.136 352.105 401.136H401.564V348.605C401.564 344.714 402.793 341.539 405.25 339.082C407.913 336.624 411.19 335.395 415.081 335.395C418.972 335.395 422.044 336.624 424.297 339.082C426.754 341.539 427.983 344.714 427.983 348.605V401.136H478.057C481.538 401.136 484.406 402.262 486.658 404.515C488.911 406.768 490.038 409.533 490.038 412.81C490.038 416.086 488.911 418.851 486.658 421.104C484.406 423.152 481.538 424.176 478.057 424.176H427.983V475.171C427.983 479.062 426.754 482.237 424.297 484.694C421.839 487.152 418.665 488.381 414.774 488.381C411.087 488.381 407.913 487.152 405.25 484.694C402.793 482.237 401.564 479.165 401.564 475.478V424.176H352.105ZM481.678 494.218C484.136 491.76 487.106 490.531 490.587 490.531H583.669V312.048C583.669 308.566 584.898 305.699 587.355 303.446C589.813 300.989 592.782 299.76 596.264 299.76C599.95 299.76 603.022 300.989 605.48 303.446C607.938 305.699 609.166 308.566 609.166 312.048V502.205C609.166 505.686 608.04 508.656 605.787 511.114C603.33 513.571 600.36 514.8 596.878 514.8H490.587C487.106 514.8 484.136 513.674 481.678 511.421C479.221 509.168 477.992 506.301 477.992 502.819C477.992 499.338 479.221 496.47 481.678 494.218Z" fill="#008080"/>
</svg>
